<mxfile host="app.diagrams.net" modified="2024-02-20T08:00:19.898Z" agent="Mozilla/5.0 (Windows NT 10.0; Win64; x64) AppleWebKit/537.36 (KHTML, like Gecko) Chrome/121.0.0.0 Safari/537.36" etag="NGawAYjDh7TKJUqeP8XH" version="23.1.5" type="browser" pages="2">
  <diagram name="Page-1" id="Th_mZghXPFLds1CjMP8T">
    <mxGraphModel dx="1195" dy="650" grid="1" gridSize="10" guides="1" tooltips="1" connect="1" arrows="1" fold="1" page="1" pageScale="1" pageWidth="850" pageHeight="1100" math="0" shadow="0">
      <root>
        <mxCell id="0" />
        <mxCell id="1" parent="0" />
        <mxCell id="vdSXQ0ee71jNwdIPdqw5-3" value="Routing" style="rounded=0;whiteSpace=wrap;html=1;" parent="1" vertex="1">
          <mxGeometry x="240" y="200" width="320" height="200" as="geometry" />
        </mxCell>
        <mxCell id="vdSXQ0ee71jNwdIPdqw5-14" value="" style="edgeStyle=orthogonalEdgeStyle;rounded=0;orthogonalLoop=1;jettySize=auto;html=1;entryX=0;entryY=0.5;entryDx=0;entryDy=0;" parent="1" source="vdSXQ0ee71jNwdIPdqw5-1" target="z9JwqX5WYEqE1i95QoQL-7" edge="1">
          <mxGeometry relative="1" as="geometry">
            <Array as="points">
              <mxPoint x="210" y="285" />
              <mxPoint x="210" y="285" />
            </Array>
          </mxGeometry>
        </mxCell>
        <mxCell id="vdSXQ0ee71jNwdIPdqw5-1" value="Input" style="whiteSpace=wrap;html=1;" parent="1" vertex="1">
          <mxGeometry x="120" y="80" width="80" height="440" as="geometry" />
        </mxCell>
        <mxCell id="vdSXQ0ee71jNwdIPdqw5-2" value="Output" style="whiteSpace=wrap;html=1;" parent="1" vertex="1">
          <mxGeometry x="600" y="80" width="80" height="440" as="geometry" />
        </mxCell>
        <mxCell id="vdSXQ0ee71jNwdIPdqw5-13" value="" style="edgeStyle=orthogonalEdgeStyle;rounded=0;orthogonalLoop=1;jettySize=auto;html=1;" parent="1" source="vdSXQ0ee71jNwdIPdqw5-3" target="vdSXQ0ee71jNwdIPdqw5-12" edge="1">
          <mxGeometry relative="1" as="geometry" />
        </mxCell>
        <mxCell id="z9JwqX5WYEqE1i95QoQL-4" style="edgeStyle=orthogonalEdgeStyle;rounded=0;orthogonalLoop=1;jettySize=auto;html=1;entryX=0.5;entryY=1;entryDx=0;entryDy=0;dashed=1;dashPattern=8 8;" edge="1" parent="1" source="vdSXQ0ee71jNwdIPdqw5-8" target="z9JwqX5WYEqE1i95QoQL-2">
          <mxGeometry relative="1" as="geometry" />
        </mxCell>
        <mxCell id="z9JwqX5WYEqE1i95QoQL-5" style="edgeStyle=orthogonalEdgeStyle;rounded=0;orthogonalLoop=1;jettySize=auto;html=1;entryX=0.5;entryY=1;entryDx=0;entryDy=0;dashed=1;dashPattern=8 8;" edge="1" parent="1" source="vdSXQ0ee71jNwdIPdqw5-8" target="z9JwqX5WYEqE1i95QoQL-3">
          <mxGeometry relative="1" as="geometry" />
        </mxCell>
        <mxCell id="vdSXQ0ee71jNwdIPdqw5-8" value="Identity and Access Management&lt;br&gt;Security boundaries&lt;br&gt;&amp;nbsp;Load Balancers" style="text;html=1;align=center;verticalAlign=middle;resizable=0;points=[];autosize=1;strokeColor=none;fillColor=none;" parent="1" vertex="1">
          <mxGeometry x="300" y="600" width="200" height="60" as="geometry" />
        </mxCell>
        <mxCell id="vdSXQ0ee71jNwdIPdqw5-11" value="" style="shape=cylinder3;whiteSpace=wrap;html=1;boundedLbl=1;backgroundOutline=1;size=15;" parent="1" vertex="1">
          <mxGeometry x="260" y="226.79" width="60" height="50" as="geometry" />
        </mxCell>
        <mxCell id="vdSXQ0ee71jNwdIPdqw5-12" value="Observability Tools" style="rounded=0;whiteSpace=wrap;html=1;" parent="1" vertex="1">
          <mxGeometry x="340" y="440" width="120" height="60" as="geometry" />
        </mxCell>
        <mxCell id="z9JwqX5WYEqE1i95QoQL-2" value="" style="rounded=0;whiteSpace=wrap;html=1;" vertex="1" parent="1">
          <mxGeometry x="215" y="40" width="10" height="520" as="geometry" />
        </mxCell>
        <mxCell id="z9JwqX5WYEqE1i95QoQL-11" style="edgeStyle=orthogonalEdgeStyle;rounded=0;orthogonalLoop=1;jettySize=auto;html=1;exitX=1;exitY=0.5;exitDx=0;exitDy=0;" edge="1" parent="1" source="z9JwqX5WYEqE1i95QoQL-7" target="z9JwqX5WYEqE1i95QoQL-10">
          <mxGeometry relative="1" as="geometry" />
        </mxCell>
        <mxCell id="z9JwqX5WYEqE1i95QoQL-7" value="Message &lt;br&gt;Streaming &lt;br&gt;Queue" style="shape=step;perimeter=stepPerimeter;whiteSpace=wrap;html=1;fixedSize=1;" vertex="1" parent="1">
          <mxGeometry x="250" y="260" width="110" height="50" as="geometry" />
        </mxCell>
        <mxCell id="z9JwqX5WYEqE1i95QoQL-12" style="edgeStyle=orthogonalEdgeStyle;rounded=0;orthogonalLoop=1;jettySize=auto;html=1;" edge="1" parent="1" source="z9JwqX5WYEqE1i95QoQL-10">
          <mxGeometry relative="1" as="geometry">
            <mxPoint x="600" y="285" as="targetPoint" />
            <Array as="points">
              <mxPoint x="600" y="285" />
            </Array>
          </mxGeometry>
        </mxCell>
        <mxCell id="z9JwqX5WYEqE1i95QoQL-10" value="Stream Processing Engine" style="sketch=0;html=1;aspect=fixed;strokeColor=none;shadow=0;fillColor=#3B8DF1;verticalAlign=top;labelPosition=center;verticalLabelPosition=bottom;shape=mxgraph.gcp2.process" vertex="1" parent="1">
          <mxGeometry x="460" y="253.21" width="53.4" height="63.57" as="geometry" />
        </mxCell>
        <mxCell id="z9JwqX5WYEqE1i95QoQL-3" value="" style="rounded=0;whiteSpace=wrap;html=1;" vertex="1" parent="1">
          <mxGeometry x="570" y="40" width="10" height="520" as="geometry" />
        </mxCell>
        <mxCell id="YA4BLkMp3Dcw-DmO_AWo-1" value="High Level Diagram" style="text;html=1;align=center;verticalAlign=middle;resizable=0;points=[];autosize=1;strokeColor=none;fillColor=none;" vertex="1" parent="1">
          <mxGeometry x="335" y="40" width="130" height="30" as="geometry" />
        </mxCell>
      </root>
    </mxGraphModel>
  </diagram>
  <diagram id="JdLYHmYmCUmhTsdjP_zs" name="Page-2">
    <mxGraphModel dx="1434" dy="780" grid="1" gridSize="10" guides="1" tooltips="1" connect="1" arrows="1" fold="1" page="1" pageScale="1" pageWidth="850" pageHeight="1100" math="0" shadow="0">
      <root>
        <mxCell id="0" />
        <mxCell id="1" parent="0" />
        <mxCell id="5MPFxI57uCHTGcUJBFXS-1" value="Input to Notification Service /&lt;br&gt;Output from Notification Service" style="whiteSpace=wrap;html=1;" parent="1" vertex="1">
          <mxGeometry x="60" y="40" width="720" height="440" as="geometry" />
        </mxCell>
        <mxCell id="XhhSrQwETQGbfTJKx7Km-11" value="" style="edgeStyle=orthogonalEdgeStyle;rounded=0;orthogonalLoop=1;jettySize=auto;html=1;" edge="1" parent="1" source="XhhSrQwETQGbfTJKx7Km-1" target="XhhSrQwETQGbfTJKx7Km-8">
          <mxGeometry relative="1" as="geometry" />
        </mxCell>
        <mxCell id="XhhSrQwETQGbfTJKx7Km-1" value="Receive incoming notification message with or without client details" style="rounded=0;whiteSpace=wrap;html=1;" vertex="1" parent="1">
          <mxGeometry x="80" y="70" width="160" height="130" as="geometry" />
        </mxCell>
        <mxCell id="XhhSrQwETQGbfTJKx7Km-3" value="" style="shape=flexArrow;endArrow=classic;html=1;rounded=0;exitX=0;exitY=0.5;exitDx=0;exitDy=0;entryX=0;entryY=0.5;entryDx=0;entryDy=0;width=35;endSize=22.33;endWidth=46;" edge="1" parent="1">
          <mxGeometry width="50" height="50" relative="1" as="geometry">
            <mxPoint x="260" y="180" as="sourcePoint" />
            <mxPoint x="445" y="180" as="targetPoint" />
          </mxGeometry>
        </mxCell>
        <mxCell id="XhhSrQwETQGbfTJKx7Km-4" value="Send to message queue" style="edgeLabel;html=1;align=center;verticalAlign=middle;resizable=0;points=[];" vertex="1" connectable="0" parent="XhhSrQwETQGbfTJKx7Km-3">
          <mxGeometry x="-0.1243" y="4" relative="1" as="geometry">
            <mxPoint y="1" as="offset" />
          </mxGeometry>
        </mxCell>
        <mxCell id="7NA0nr35QYqJu8-ITQ0u-10" value="" style="edgeStyle=orthogonalEdgeStyle;rounded=0;orthogonalLoop=1;jettySize=auto;html=1;entryX=0.5;entryY=0;entryDx=0;entryDy=0;entryPerimeter=0;" edge="1" parent="1" source="XhhSrQwETQGbfTJKx7Km-6" target="XhhSrQwETQGbfTJKx7Km-32">
          <mxGeometry relative="1" as="geometry" />
        </mxCell>
        <mxCell id="XhhSrQwETQGbfTJKx7Km-6" value="Service to Append to Message Queue" style="rounded=0;whiteSpace=wrap;html=1;" vertex="1" parent="1">
          <mxGeometry x="630" y="70" width="120" height="60" as="geometry" />
        </mxCell>
        <mxCell id="XhhSrQwETQGbfTJKx7Km-13" value="" style="edgeStyle=orthogonalEdgeStyle;rounded=0;orthogonalLoop=1;jettySize=auto;html=1;" edge="1" parent="1" source="XhhSrQwETQGbfTJKx7Km-7" target="XhhSrQwETQGbfTJKx7Km-6">
          <mxGeometry relative="1" as="geometry" />
        </mxCell>
        <mxCell id="XhhSrQwETQGbfTJKx7Km-7" value="Validation and Sanitization of Notification Content" style="rounded=0;whiteSpace=wrap;html=1;" vertex="1" parent="1">
          <mxGeometry x="425" y="70" width="160" height="60" as="geometry" />
        </mxCell>
        <mxCell id="XhhSrQwETQGbfTJKx7Km-12" value="" style="edgeStyle=orthogonalEdgeStyle;rounded=0;orthogonalLoop=1;jettySize=auto;html=1;" edge="1" parent="1" source="XhhSrQwETQGbfTJKx7Km-8" target="XhhSrQwETQGbfTJKx7Km-7">
          <mxGeometry relative="1" as="geometry" />
        </mxCell>
        <mxCell id="XhhSrQwETQGbfTJKx7Km-8" value="Rate Limiter Service" style="rounded=0;whiteSpace=wrap;html=1;" vertex="1" parent="1">
          <mxGeometry x="280" y="70" width="120" height="60" as="geometry" />
        </mxCell>
        <mxCell id="XhhSrQwETQGbfTJKx7Km-21" value="" style="edgeStyle=orthogonalEdgeStyle;rounded=0;orthogonalLoop=1;jettySize=auto;html=1;" edge="1" parent="1" source="XhhSrQwETQGbfTJKx7Km-9">
          <mxGeometry relative="1" as="geometry">
            <mxPoint x="10" y="360" as="targetPoint" />
          </mxGeometry>
        </mxCell>
        <mxCell id="XhhSrQwETQGbfTJKx7Km-9" value="Send notification message to connected client" style="rounded=0;whiteSpace=wrap;html=1;" vertex="1" parent="1">
          <mxGeometry x="80" y="280" width="160" height="160" as="geometry" />
        </mxCell>
        <mxCell id="XhhSrQwETQGbfTJKx7Km-17" value="" style="endArrow=classic;html=1;rounded=0;exitX=1;exitY=0.5;exitDx=0;exitDy=0;" edge="1" parent="1" source="XhhSrQwETQGbfTJKx7Km-6">
          <mxGeometry width="50" height="50" relative="1" as="geometry">
            <mxPoint x="700" y="120" as="sourcePoint" />
            <mxPoint x="830" y="100" as="targetPoint" />
          </mxGeometry>
        </mxCell>
        <mxCell id="XhhSrQwETQGbfTJKx7Km-18" value="" style="shape=flexArrow;endArrow=classic;html=1;rounded=0;exitX=1;exitY=0.5;exitDx=0;exitDy=0;entryX=0;entryY=0.5;entryDx=0;entryDy=0;width=34.666666666666664;endSize=19.89;endWidth=46;" edge="1" parent="1">
          <mxGeometry width="50" height="50" relative="1" as="geometry">
            <mxPoint x="420" y="420" as="sourcePoint" />
            <mxPoint x="260" y="420" as="targetPoint" />
          </mxGeometry>
        </mxCell>
        <mxCell id="XhhSrQwETQGbfTJKx7Km-19" value="Send to Output Service" style="edgeLabel;html=1;align=center;verticalAlign=middle;resizable=0;points=[];" vertex="1" connectable="0" parent="XhhSrQwETQGbfTJKx7Km-18">
          <mxGeometry x="-0.1243" y="4" relative="1" as="geometry">
            <mxPoint y="-4" as="offset" />
          </mxGeometry>
        </mxCell>
        <mxCell id="XhhSrQwETQGbfTJKx7Km-22" value="Validation and Sanitization of Notification Content" style="rounded=0;whiteSpace=wrap;html=1;" vertex="1" parent="1">
          <mxGeometry x="260" y="310" width="160" height="60" as="geometry" />
        </mxCell>
        <mxCell id="XhhSrQwETQGbfTJKx7Km-25" style="edgeStyle=orthogonalEdgeStyle;rounded=0;orthogonalLoop=1;jettySize=auto;html=1;exitX=0;exitY=0.5;exitDx=0;exitDy=0;entryX=1;entryY=0.5;entryDx=0;entryDy=0;" edge="1" parent="1" source="XhhSrQwETQGbfTJKx7Km-23" target="XhhSrQwETQGbfTJKx7Km-22">
          <mxGeometry relative="1" as="geometry" />
        </mxCell>
        <mxCell id="XhhSrQwETQGbfTJKx7Km-23" value="Rate Limiter Service" style="rounded=0;whiteSpace=wrap;html=1;" vertex="1" parent="1">
          <mxGeometry x="440" y="310" width="120" height="60" as="geometry" />
        </mxCell>
        <mxCell id="XhhSrQwETQGbfTJKx7Km-28" style="edgeStyle=orthogonalEdgeStyle;rounded=0;orthogonalLoop=1;jettySize=auto;html=1;exitX=0;exitY=0.5;exitDx=0;exitDy=0;entryX=1;entryY=0.375;entryDx=0;entryDy=0;entryPerimeter=0;" edge="1" parent="1" source="XhhSrQwETQGbfTJKx7Km-22" target="XhhSrQwETQGbfTJKx7Km-9">
          <mxGeometry relative="1" as="geometry" />
        </mxCell>
        <mxCell id="XhhSrQwETQGbfTJKx7Km-32" value="Store metadata in cache" style="shape=cylinder3;whiteSpace=wrap;html=1;boundedLbl=1;backgroundOutline=1;size=15;" vertex="1" parent="1">
          <mxGeometry x="600" y="160" width="160" height="190" as="geometry" />
        </mxCell>
        <mxCell id="XhhSrQwETQGbfTJKx7Km-29" value="Message Time To Live" style="rounded=0;whiteSpace=wrap;html=1;" vertex="1" parent="1">
          <mxGeometry x="615" y="210" width="130" height="30" as="geometry" />
        </mxCell>
        <mxCell id="XhhSrQwETQGbfTJKx7Km-31" value="Region Replication and Sharding Service" style="rounded=0;whiteSpace=wrap;html=1;" vertex="1" parent="1">
          <mxGeometry x="615" y="290" width="130" height="40" as="geometry" />
        </mxCell>
        <mxCell id="XhhSrQwETQGbfTJKx7Km-33" value="To Kafka" style="text;html=1;align=center;verticalAlign=middle;resizable=0;points=[];autosize=1;strokeColor=none;fillColor=none;" vertex="1" parent="1">
          <mxGeometry x="770" y="70" width="70" height="30" as="geometry" />
        </mxCell>
        <mxCell id="XhhSrQwETQGbfTJKx7Km-34" value="To Users" style="text;html=1;align=center;verticalAlign=middle;resizable=0;points=[];autosize=1;strokeColor=none;fillColor=none;" vertex="1" parent="1">
          <mxGeometry y="330" width="70" height="30" as="geometry" />
        </mxCell>
        <mxCell id="7NA0nr35QYqJu8-ITQ0u-1" value="Routing" style="rounded=0;whiteSpace=wrap;html=1;" vertex="1" parent="1">
          <mxGeometry x="60" y="510" width="720" height="250" as="geometry" />
        </mxCell>
        <mxCell id="7NA0nr35QYqJu8-ITQ0u-2" value="Stream Processing Engine" style="sketch=0;html=1;aspect=fixed;strokeColor=none;shadow=0;fillColor=#3B8DF1;verticalAlign=top;labelPosition=center;verticalLabelPosition=bottom;shape=mxgraph.gcp2.process" vertex="1" parent="1">
          <mxGeometry x="630" y="610" width="53.4" height="63.57" as="geometry" />
        </mxCell>
        <mxCell id="7NA0nr35QYqJu8-ITQ0u-3" value="" style="shape=cylinder3;whiteSpace=wrap;html=1;boundedLbl=1;backgroundOutline=1;size=15;" vertex="1" parent="1">
          <mxGeometry x="165" y="600" width="60" height="50" as="geometry" />
        </mxCell>
        <mxCell id="7NA0nr35QYqJu8-ITQ0u-4" value="" style="edgeStyle=orthogonalEdgeStyle;rounded=0;orthogonalLoop=1;jettySize=auto;html=1;startArrow=classic;startFill=1;" edge="1" parent="1" source="7NA0nr35QYqJu8-ITQ0u-5" target="7NA0nr35QYqJu8-ITQ0u-2">
          <mxGeometry relative="1" as="geometry">
            <Array as="points">
              <mxPoint x="600" y="665" />
              <mxPoint x="600" y="652" />
            </Array>
          </mxGeometry>
        </mxCell>
        <mxCell id="7NA0nr35QYqJu8-ITQ0u-5" value="Message &lt;br&gt;Streaming &lt;br&gt;Queue" style="shape=step;perimeter=stepPerimeter;whiteSpace=wrap;html=1;fixedSize=1;" vertex="1" parent="1">
          <mxGeometry x="140" y="640" width="110" height="50" as="geometry" />
        </mxCell>
        <mxCell id="7NA0nr35QYqJu8-ITQ0u-6" value="Apache Kafka Cluster" style="text;html=1;align=center;verticalAlign=middle;resizable=0;points=[];autosize=1;strokeColor=none;fillColor=none;" vertex="1" parent="1">
          <mxGeometry x="125" y="710" width="140" height="30" as="geometry" />
        </mxCell>
        <mxCell id="7NA0nr35QYqJu8-ITQ0u-7" value="Kafka Streams" style="text;html=1;align=center;verticalAlign=middle;resizable=0;points=[];autosize=1;strokeColor=none;fillColor=none;" vertex="1" parent="1">
          <mxGeometry x="606.7" y="710" width="100" height="30" as="geometry" />
        </mxCell>
        <mxCell id="7NA0nr35QYqJu8-ITQ0u-8" value="Stream Processing Engine also talks with the Cache Database" style="text;html=1;align=center;verticalAlign=middle;resizable=0;points=[];autosize=1;strokeColor=none;fillColor=none;" vertex="1" parent="1">
          <mxGeometry x="240" y="540" width="360" height="30" as="geometry" />
        </mxCell>
        <mxCell id="7NA0nr35QYqJu8-ITQ0u-9" value="" style="endArrow=classic;startArrow=classic;html=1;rounded=0;entryX=0.5;entryY=1;entryDx=0;entryDy=0;entryPerimeter=0;exitX=0.412;exitY=-0.094;exitDx=0;exitDy=0;exitPerimeter=0;" edge="1" parent="1" source="7NA0nr35QYqJu8-ITQ0u-2" target="XhhSrQwETQGbfTJKx7Km-32">
          <mxGeometry width="50" height="50" relative="1" as="geometry">
            <mxPoint x="460" y="330" as="sourcePoint" />
            <mxPoint x="510" y="280" as="targetPoint" />
          </mxGeometry>
        </mxCell>
      </root>
    </mxGraphModel>
  </diagram>
</mxfile>
